<mxfile host="app.diagrams.net" modified="2024-03-23T18:24:46.705Z" agent="Mozilla/5.0 (Windows NT 10.0; Win64; x64) AppleWebKit/537.36 (KHTML, like Gecko) Chrome/122.0.0.0 Safari/537.36" version="24.0.2" etag="9bUfPEgKWUh2m9YYncw0" type="github">
  <diagram name="Page-1" id="2kGVG4q3BIN-n6cTjx8m">
    <mxGraphModel>
      <root>
        <mxCell id="0" />
        <mxCell id="1" parent="0" />
      </root>
    </mxGraphModel>
  </diagram>
</mxfile>
